HIERARCHY
ROOT Hips
{
	OFFSET 0.00000 0.00000 0.00000
	CHANNELS 6 Xposition Yposition Zposition Zrotation Yrotation Xrotation 
	JOINT LHipJoint
	{
		OFFSET 0 0 0
		CHANNELS 3 Zrotation Yrotation Xrotation
		JOINT LeftUpLeg
		{
			OFFSET 1.75344 -1.53157 0.77399
			CHANNELS 3 Zrotation Yrotation Xrotation
			JOINT LeftLeg
			{
				OFFSET 2.25415 -6.19323 0.00000
				CHANNELS 3 Zrotation Yrotation Xrotation
				JOINT LeftFoot
				{
					OFFSET 2.30342 -6.32861 0.00000
					CHANNELS 3 Zrotation Yrotation Xrotation
					JOINT LeftToeBase
					{
						OFFSET 0.10958 -0.30108 1.49206
						CHANNELS 3 Zrotation Yrotation Xrotation
						End Site
						{
							OFFSET 0.00000 -0.00000 0.77783
						}
					}
				}
			}
		}
	}
	JOINT RHipJoint
	{
		OFFSET 0 0 0
		CHANNELS 3 Zrotation Yrotation Xrotation
		JOINT RightUpLeg
		{
			OFFSET -1.81912 -1.53156 0.77399
			CHANNELS 3 Zrotation Yrotation Xrotation
			JOINT RightLeg
			{
				OFFSET -2.22882 -6.12365 0.00000
				CHANNELS 3 Zrotation Yrotation Xrotation
				JOINT RightFoot
				{
					OFFSET -2.21943 -6.09785 0.00000
					CHANNELS 3 Zrotation Yrotation Xrotation
					JOINT RightToeBase
					{
						OFFSET -0.18931 -0.52012 1.59379
						CHANNELS 3 Zrotation Yrotation Xrotation
						End Site
						{
							OFFSET -0.00000 -0.00000 0.84686
						}
					}
				}
			}
		}
	}
	JOINT LowerBack
	{
		OFFSET 0 0 0
		CHANNELS 3 Zrotation Yrotation Xrotation
		JOINT Spine
		{
			OFFSET -0.00200 1.66634 -0.14248
			CHANNELS 3 Zrotation Yrotation Xrotation
			JOINT Spine1
			{
				OFFSET -0.00875 1.64542 0.09514
				CHANNELS 3 Zrotation Yrotation Xrotation
				JOINT Neck
				{
					OFFSET 0 0 0
					CHANNELS 3 Zrotation Yrotation Xrotation
					JOINT Neck1
					{
						OFFSET 0.02257 1.59605 0.00839
						CHANNELS 3 Zrotation Yrotation Xrotation
						JOINT Head
						{
							OFFSET -0.10214 1.57530 -0.23335
							CHANNELS 3 Zrotation Yrotation Xrotation
							End Site
							{
								OFFSET -0.03588 1.60717 -0.08062
							}
						}
					}
				}
				JOINT LeftShoulder
				{
					OFFSET 0 0 0
					CHANNELS 3 Zrotation Yrotation Xrotation
					JOINT LeftArm
					{
						OFFSET 2.54983 1.10186 0.40078
						CHANNELS 3 Zrotation Yrotation Xrotation
						JOINT LeftForeArm
						{
							OFFSET 4.28840 -0.00000 0.00000
							CHANNELS 3 Zrotation Yrotation Xrotation
							JOINT LeftHand
							{
								OFFSET 3.06552 -0.00000 -0.00000
								CHANNELS 3 Zrotation Yrotation Xrotation
								JOINT LeftFingerBase
								{
									OFFSET 0 0 0
									CHANNELS 3 Zrotation Yrotation Xrotation
									JOINT LeftHandIndex1
									{
										OFFSET 0.75304 -0.00000 0.00000
										CHANNELS 3 Zrotation Yrotation Xrotation
										End Site
										{
											OFFSET 0.60712 -0.00000 0.00000
										}
									}
								}
								JOINT LThumb
								{
									OFFSET 0 0 0
									CHANNELS 3 Zrotation Yrotation Xrotation
									End Site
									{
										OFFSET 0.61639 -0.00000 0.61639
									}
								}
							}
						}
					}
				}
				JOINT RightShoulder
				{
					OFFSET 0 0 0
					CHANNELS 3 Zrotation Yrotation Xrotation
					JOINT RightArm
					{
						OFFSET -2.60909 1.35448 0.21802
						CHANNELS 3 Zrotation Yrotation Xrotation
						JOINT RightForeArm
						{
							OFFSET -4.52172 -0.00000 -0.00000
							CHANNELS 3 Zrotation Yrotation Xrotation
							JOINT RightHand
							{
								OFFSET -2.89140 -0.00000 0.00000
								CHANNELS 3 Zrotation Yrotation Xrotation
								JOINT RightFingerBase
								{
									OFFSET 0 0 0
									CHANNELS 3 Zrotation Yrotation Xrotation
									JOINT RightHandIndex1
									{
										OFFSET -0.68054 -0.00000 0.00000
										CHANNELS 3 Zrotation Yrotation Xrotation
										End Site
										{
											OFFSET -0.54867 -0.00000 0.00000
										}
									}
								}
								JOINT RThumb
								{
									OFFSET 0 0 0
									CHANNELS 3 Zrotation Yrotation Xrotation
									End Site
									{
										OFFSET -0.55705 -0.00000 0.55705
									}
								}
							}
						}
					}
				}
			}
		}
	}
}
MOTION
Frames: 7
Frame Time: .0083333
9.6289 15.3768 -39.0184 0 0 0 0 0 0 -21 0 0 0 0 0 0 0 0 0 0 0 0 0 0 21 0 0 0 0 0 0 0 0 0 0 0 0 0 0 0 0 0 0 0 0 0 0 -16 0 0 21 0 0 11 0 0 0 -8 0 0 0 0 0 0 0 0 0 0 0 0 0 0 0 0 0 0 0 0 8 0 0 0 0 0 0 0 0 0 0 0 0 0 0 0 0 0
9.6289 15.3768 -39.0184 0.4187 -1.1077 -0.6956 0.0000 0.0000 0.0000 -27.7958 -22.6494 1.0820 2.3006 9.4660 27.2641 1.6083 12.1164 -30.9925 0.1952 -2.8454 -7.8485 0.0000 0.0000 0.0000 25.3938 20.4963 3.6268 -1.9641 -8.7909 25.1433 0.3360 -23.8285 -31.4113 -0.0596 1.5751 -4.3328 0.0388 0.6639 6.7421 -0.4901 0.8564 -4.6789 -0.6616 0.3979 -8.7206 -7.8435 -5.5157 -6.0266 4.5869 -7.5181 20.3570 2.1552 -3.8019 7.7283 0.0000 -0.0000 0.0000 -86.0928 13.5370 32.0602 20.0295 -30.6779 -5.5464 -0.0000 -0.0000 11.0681 0.0964 -37.2612 -0.0584 -7.1250 0.0000 -0.0000 -17.8263 -5.7281 20.4892 0.0000 -0.0000 0.0000 83.5475 -11.3649 56.8666 -18.1851 28.3935 -4.6369 0.0000 0.0000 12.5887 -4.4911 -53.2478 3.6010 7.1250 -0.0000 -0.0000 71.1129 -73.0102 -53.5967
9.6305 15.3757 -39.0185 0.4499 -1.1337 -0.7073 0.0000 0.0000 0.0000 -27.8314 -22.6346 1.0902 2.3075 9.4791 27.3058 1.5787 12.4623 -31.0821 0.2870 -3.4452 -9.5209 0.0000 0.0000 0.0000 25.4085 20.6482 3.7297 -1.9590 -8.7801 25.1099 0.4341 -24.2536 -31.3995 -0.0778 1.7991 -4.9508 0.0190 0.7157 6.8993 -0.5335 0.9200 -4.7175 -0.7085 0.4279 -8.8542 -7.7070 -5.5070 -6.1143 4.5419 -7.5107 20.4095 2.1163 -3.7905 7.7533 -0.0000 -0.0000 0.0000 -86.1688 13.6447 31.7363 19.9947 -30.6360 -5.5287 -0.0000 -0.0000 11.3205 1.0321 -37.1210 -0.6229 -7.1250 0.0000 -0.0000 -17.3424 -5.6774 19.8647 -0.0000 -0.0000 0.0000 83.6861 -11.5623 56.3726 -18.2257 28.4452 -4.6562 0.0000 0.0000 12.7765 -4.6008 -52.5235 3.6541 7.1250 -0.0000 -0.0000 68.7963 -72.8284 -51.2634
9.6339 15.3747 -39.0130 0.3864 -1.2335 -0.7189 0.0000 0.0000 0.0000 -27.7903 -22.5653 1.0784 2.3167 9.4968 27.3621 1.5413 12.7008 -31.0400 0.3612 -3.8611 -10.6861 0.0000 0.0000 0.0000 25.4577 20.6399 3.7765 -1.9486 -8.7581 25.0415 0.4350 -24.2040 -31.3177 -0.0799 1.8239 -5.0192 0.0685 0.7786 7.0902 -0.5191 1.0106 -4.8189 -0.7389 0.4682 -9.0760 -7.6124 -5.4661 -6.1250 4.5000 -7.4613 20.5002 2.0914 -3.7634 7.7763 0.0000 -0.0000 0.0000 -86.4360 14.3971 31.2322 20.3064 -31.0097 -5.6884 -0.0000 -0.0000 11.8111 1.4534 -37.0787 -0.8764 -7.1250 0.0000 -0.0000 -17.1242 -5.6761 19.5908 0.0000 -0.0000 0.0000 83.7326 -11.8592 55.9965 -18.2514 28.4778 -4.6685 0.0000 0.0000 13.0569 -3.9278 -52.7119 3.1268 7.1250 -0.0000 -0.0000 69.7336 -72.6459 -51.9059
9.6356 15.3726 -39.0114 0.3617 -1.2179 -0.7708 0.0000 0.0000 0.0000 -27.7776 -22.5058 1.0967 2.3243 9.5112 27.4079 1.5338 12.7007 -30.9921 0.3791 -3.9545 -10.9488 0.0000 0.0000 0.0000 25.4879 20.5521 3.8417 -1.9412 -8.7424 24.9928 0.4290 -24.1734 -31.3111 -0.0868 1.9001 -5.2297 -0.0452 0.8004 6.7861 -0.4260 1.0361 -4.5811 -0.5716 0.4932 -8.6410 -7.6033 -5.3990 -6.1629 4.5235 -7.3572 20.2081 2.1078 -3.7092 7.6798 0.0000 -0.0000 0.0000 -86.2128 13.6926 31.6983 20.0751 -30.7327 -5.5697 -0.0000 -0.0000 11.2785 1.7728 -37.1362 -1.0705 -7.1250 0.0000 -0.0000 -16.9621 -5.7614 19.4112 0.0000 -0.0000 0.0000 83.5915 -11.5973 55.7711 -18.2530 28.4799 -4.6692 0.0000 0.0000 13.0859 -2.3265 -53.6074 1.8732 7.1250 -0.0000 -0.0000 73.2669 -72.3337 -54.8064
9.6401 15.3782 -39.0059 0.3284 -1.3680 -0.5560 0.0000 0.0000 0.0000 -27.6960 -22.6300 0.9023 2.3292 9.5205 27.4375 1.5501 12.7463 -31.1320 0.3678 -3.8958 -10.7837 0.0000 0.0000 0.0000 25.4020 20.6445 3.6182 -1.9337 -8.7265 24.9435 0.4229 -24.0577 -31.1757 -0.0986 2.0253 -5.5756 0.0453 0.8556 6.5282 -0.4494 1.1184 -4.6297 -0.6546 0.5277 -8.5392 -7.5855 -5.2957 -6.1045 4.6581 -7.2410 20.0573 2.1626 -3.6415 7.6153 0.0000 -0.0000 0.0000 -86.0624 13.6816 32.1266 20.0897 -30.7502 -5.5771 -0.0000 -0.0000 11.5843 3.4199 -36.2824 -2.0253 -7.1250 0.0000 -0.0000 -16.0691 -5.1110 18.1372 0.0000 -0.0000 0.0000 83.6533 -11.6508 55.4036 -18.3113 28.5539 -4.6971 0.0000 0.0000 12.8253 -1.8318 -53.8343 1.4790 7.1250 -0.0000 -0.0000 74.1872 -72.2175 -55.5326
9.6441 15.3739 -39.0008 0.2621 -1.5225 -0.6511 0.0000 0.0000 0.0000 -27.7153 -22.6134 1.0253 2.3312 9.5243 27.4495 1.5317 13.0230 -31.2443 0.4200 -4.1594 -11.5256 0.0000 0.0000 0.0000 25.5152 20.7442 3.7905 -1.9285 -8.7154 24.9091 0.4108 -23.9865 -31.1486 -0.1037 2.0765 -5.7170 0.0365 0.9206 6.5575 -0.3666 1.2111 -4.5881 -0.5750 0.5764 -8.5124 -7.6833 -5.2462 -5.9925 4.7394 -7.1781 19.9387 2.2147 -3.6132 7.5587 0.0000 -0.0000 0.0000 -86.1316 14.0266 33.1724 20.3527 -31.0650 -5.7122 -0.0000 -0.0000 12.8262 7.8654 -33.3986 -4.3486 -7.1250 0.0000 -0.0000 -13.5282 -2.8489 14.5885 0.0000 -0.0000 0.0000 83.5607 -11.6942 55.1208 -18.3941 28.6589 -4.7367 0.0000 0.0000 12.4492 -2.9159 -53.1068 2.3327 7.1250 -0.0000 -0.0000 71.4592 -72.4031 -53.2071
